<svg xmlns="http://www.w3.org/2000/svg" viewBox="0 0 100 100" fill="none" shape-rendering="auto" aria-hidden="true"><metadata xmlns:rdf="http://www.w3.org/1999/02/22-rdf-syntax-ns#" xmlns:xsi="http://www.w3.org/2001/XMLSchema-instance" xmlns:dc="http://purl.org/dc/elements/1.1/" xmlns:dcterms="http://purl.org/dc/terms/"><rdf:RDF><rdf:Description><dc:title>Thumbs</dc:title><dc:creator>DiceBear</dc:creator><dc:source xsi:type="dcterms:URI">https://www.dicebear.com</dc:source><dcterms:license xsi:type="dcterms:URI">https://creativecommons.org/publicdomain/zero/1.0/</dcterms:license><dc:rights>“Thumbs” (https://www.dicebear.com) by “DiceBear”, licensed under “CC0 1.0” (https://creativecommons.org/publicdomain/zero/1.0/)</dc:rights></rdf:Description></rdf:RDF></metadata><defs><g id="eyes-variant02-3db1c90e"><path d="M9.5 10c-3.88 0-7.11-4.23-6.4-4.85s2.63 1.3 6.4 1.3 5.69-2 6.4-1.3S13.38 10 9.5 10" fill="#000000"/></g><g id="mouth-variant05-3db1c90e"><path d="M15.2 3.84c0-.67-4.2-2-4.2-2.67s7 .67 7 2.67-4.2 2.66-4.2 2.66 4.2.67 4.2 2.66-7 3.33-7 2.67 4.2-2 4.2-2.67-3.5-1.33-3.5-2.66 3.5-2 3.5-2.66" fill="#000000"/></g><g id="head-default-3db1c90e"><use transform="translate(2.00579, 1.20467)" href="#eyes-variant02-3db1c90e"/><use transform="matrix(-1 0 0 1 44 0) translate(2.00579, 1.20467)" href="#eyes-variant02-3db1c90e"/><use transform="translate(7 26) translate(0, -0.39571)" href="#mouth-variant05-3db1c90e"/></g><g id="body-default-3db1c90e"><path d="M45 0c24.85 0 45 19.4 45 43.33V130H0V43.33C0 19.4 20.15 0 45 0" fill="#f88c49"/><use transform="translate(24 24) translate(1.28295, -1.3176) rotate(-5.6113, 22, 20)" href="#head-default-3db1c90e"/></g><clipPath id="clip-3db1c90e"><rect width="100" height="100" rx="0" ry="0"/></clipPath></defs><g clip-path="url(#clip-3db1c90e)"><rect width="100" height="100" fill="#f1f4dc"/><use transform="translate(5 10) translate(-0.39852, -4.58601) rotate(-11.7073, 45, 65)" href="#body-default-3db1c90e"/></g></svg>